<?xml version="1.0" encoding="utf-8"?>
<!-- Generator: Adobe Illustrator 19.1.0, SVG Export Plug-In . SVG Version: 6.00 Build 0)  -->
<svg version="1.1" id="Layer_1" xmlns="http://www.w3.org/2000/svg" xmlns:xlink="http://www.w3.org/1999/xlink" x="0px" y="0px"
	 viewBox="-449 451 100 100" style="enable-background:new -449 451 100 100;" xml:space="preserve">
<style type="text/css">
	.st0{fill:none;stroke:#DD9A3A;stroke-width:2;stroke-miterlimit:10;}
	.st1{fill:#E5AB29;}
	.st2{fill:#4D3875;}
	.st3{fill:#49579E;}
	.st4{fill:#4883A0;}
</style>
<polyline class="st0" points="-444.3,485.3 -413,470.3 -384.1,487.8 -352.7,457.9 "/>
<circle class="st1" cx="-444.1" cy="484.9" r="4.9"/>
<circle class="st1" cx="-413" cy="470.5" r="4.9"/>
<circle class="st1" cx="-384" cy="487" r="4.9"/>
<circle class="st1" cx="-354" cy="458.1" r="4.9"/>
<g>
	<path class="st2" d="M-440,499.2h-8c-0.6,0-1,0.4-1,1V551h10v-50.8C-439,499.6-439.4,499.2-440,499.2z"/>
	<path class="st3" d="M-449,520.2v30.6h10v-30.6"/>
	<path class="st4" d="M-449,534.2v16.7h10v-16.7"/>
</g>
<g>
	<path class="st2" d="M-425,491.8h-8c-0.6,0-1,0.4-1,1V551h10v-58.2C-424,492.2-424.4,491.8-425,491.8z"/>
	<path class="st3" d="M-434,515.7v35h10v-35"/>
	<path class="st4" d="M-434,531.7v19.1h10v-19.1"/>
</g>
<g>
	<path class="st2" d="M-410,485.4h-8c-0.6,0-1,0.4-1,1V551h10v-64.6C-409,485.9-409.4,485.4-410,485.4z"/>
	<path class="st3" d="M-419,511.9v38.8h10v-38.8"/>
	<path class="st4" d="M-419,529.6v21.2h10v-21.2"/>
</g>
<g>
	<path class="st2" d="M-395,492.8h-8c-0.6,0-1,0.4-1,1V551h10v-57.2C-394,493.3-394.4,492.8-395,492.8z"/>
	<path class="st3" d="M-404,516.4v34.4h10v-34.4"/>
	<path class="st4" d="M-404,532.1v18.8h10v-18.8"/>
</g>
<g>
	<path class="st2" d="M-380,501.4h-8c-0.6,0-1,0.4-1,1V551h10v-48.6C-379,501.9-379.4,501.4-380,501.4z"/>
	<path class="st3" d="M-389,521.5v29.2h10v-29.2"/>
	<path class="st4" d="M-389,534.9v16h10v-16"/>
</g>
<g>
	<path class="st2" d="M-365,491.8h-8c-0.6,0-1,0.4-1,1V551h10v-58.2C-364,492.2-364.4,491.8-365,491.8z"/>
	<path class="st3" d="M-374,515.7v35h10v-35"/>
	<path class="st4" d="M-374,531.7v19.1h10v-19.1"/>
</g>
<g>
	<path class="st2" d="M-350,472.2h-8c-0.6,0-1,0.4-1,1V551h10v-77.8C-349,472.6-349.4,472.2-350,472.2z"/>
	<path class="st3" d="M-359,503.9v46.8h10v-46.8"/>
	<path class="st4" d="M-359,525.3v25.6h10v-25.6"/>
</g>
</svg>
